# xmcd
#
# Track frame offsets:
#	150
#	13229
#	29189
#	44207
#	57608
#	71248
#	85941
#	101041
#	114734
#	130182
#
# Disc length: 1938 seconds
#
# Revision: 0
# Processed by: cddbd v1.5.2PL0 Copyright (c) Steve Scherf et al.
# Submitted via: EasyCDDAExtractor 16.0.6.1
#
DISCID=a007900a
DTITLE=Συλλογικός δίσκος - Λαϊκό τραγούδι 1954-1967, 1964-1
DYEAR=2008
DGENRE=Λαϊκή
TTITLE0=Μοσχολιού Βίκυ - Άλλη αγάπη έπιασες [Νίκος Δαλέζιος]
TTITLE1=Γαβαλάς Πάνος-Κούρτη Ρία - Δρόμος δίχως σύνορα [Γιώργος Κατσαρός-Πυθαγ
TTITLE1=όρας]
TTITLE2=Μπιθικώτσης Γρηγόρης-Γκίκα Βούλα - Τριαντάφυλλα σπασμένα [Γρηγόρης Μπι
TTITLE2=θικώτσης-Κ. Σιμόπουλος]
TTITLE3=Λύδια Γιώτα - Αχ! Ας μπορούσα [Στράτος Ατταλίδης-Κώστας Βίρβος]
TTITLE4=Καζαντζίδης Στέλιος-Μαρινέλλα - Τα σφάλματα είναι για τους ανθρώπους [
TTITLE4=Μπάμπης Μπακάλης-Ηρ. Παπασιδέρης]
TTITLE5=Γαβαλάς Πάνος - Να χαίρεσαι και να γλεντάς [Στέλιος Χρυσίνης-Σπύλος Κε
TTITLE5=φαλόπουλος]
TTITLE6=Αγγελόπουλος Μανώλης - Φεύγω μαννούλα μου γλυκειά (Ο Καναδάς)[Μανώλης 
TTITLE6=Αγγελόπουλος-Μιχ. Αλεξάκης]
TTITLE7=Πάνου Πόλυ-Καλδάρας Απόστολος - Σ' αγάπησα και πόνεσα [Απόστολος Καλδά
TTITLE7=ρας]
TTITLE8=Καζαντζίδης Στέλιος - Τα μουντζουρωμένα χέρια [Στέλιος Καζαντζίδης-Στέ
TTITLE8=φανος Βαρτάνης]
TTITLE9=Περπινιάδης Βαγγέλης - Δεν είμαι βράχος, ούτε βουνό [Μπάμπης Μπακάλης-
TTITLE9=Δημήτρης Γκούτης]
EXTD=
EXTT0=
EXTT1=
EXTT2=
EXTT3=
EXTT4=
EXTT5=
EXTT6=
EXTT7=
EXTT8=
EXTT9=
PLAYORDER=
